PathFileType	4	(X/Y/Z)	 s09c0101.trc
DataRate	CameraRate	NumFrames	NumMarkers	Units	OrigDataRate	OrigDataStartFrame	OrigNumFrames
200	200	5	50	mm	200	1	2000
Frame#	Time	racr			lacr			c7			jug			rlel			rdr			llel			ldr			s2			lic			ric			lasi			rasi			rpsi			lpsi			rgt			lgt			rth1			rth2			rth3			rth4			rlfc			rmfc			rsh1			rsh2			rsh3			rsh4			rlmal			rmmal			rcal			rtoe			rmt5			lth1			lth2			lth4			lth3			llfc			lmfc			llmal			lmmal			lcal			lmt5			lsh1			lsh2			lsh3			lsh4			ltoe			SBIKE			LBIKE			RBIKE			
		X1	Y1	Z1	X2	Y2	Z2	X3	Y3	Z3	X4	Y4	Z4	X5	Y5	Z5	X6	Y6	Z6	X7	Y7	Z7	X8	Y8	Z8	X9	Y9	Z9	X10	Y10	Z10	X11	Y11	Z11	X12	Y12	Z12	X13	Y13	Z13	X14	Y14	Z14	X15	Y15	Z15	X16	Y16	Z16	X17	Y17	Z17	X18	Y18	Z18	X19	Y19	Z19	X20	Y20	Z20	X21	Y21	Z21	X22	Y22	Z22	X23	Y23	Z23	X24	Y24	Z24	X25	Y25	Z25	X26	Y26	Z26	X27	Y27	Z27	X28	Y28	Z28	X29	Y29	Z29	X30	Y30	Z30	X31	Y31	Z31	X32	Y32	Z32	X33	Y33	Z33	X34	Y34	Z34	X35	Y35	Z35	X36	Y36	Z36	X37	Y37	Z37	X38	Y38	Z38	X39	Y39	Z39	X40	Y40	Z40	X41	Y41	Z41	X42	Y42	Z42	X43	Y43	Z43	X44	Y44	Z44	X45	Y45	Z45	X46	Y46	Z46	X47	Y47	Z47	X48	Y48	Z48	X49	Y49	Z49	X50	Y50	Z50	
1	0.0050	485.338797	1304.583568	-93.312721	506.744901	1288.592068	-411.427702	458.971529	1328.749679	-253.666644	469.717321	1189.892830	-247.973306	516.577445	1061.630557	-4.060455	691.773573	875.774121	-52.670012	487.665152	1024.877029	-516.927933	682.851565	877.413469	-448.256174	-17.410344	1149.842151	-237.200357	123.089506	1114.583707	-381.012037	138.218777	1121.856806	-99.064361	141.674069	1045.331210	-362.464408	162.133679	1055.879289	-113.643561	23.378959	1176.011323	-180.776536	18.710568	1179.575157	-290.785598	80.481547	989.842364	-42.313763	61.227482	1005.999611	-431.840462	170.931362	883.959726	-48.916072	242.306844	836.166875	-57.601662	278.808162	754.337583	-64.119857	267.375615	856.478210	-74.312784	323.496638	664.736975	-99.325255	304.317907	652.521536	-195.452801	243.060243	599.573589	-69.161503	201.077366	520.911621	-83.744766	126.555072	474.880475	-83.272737	220.335757	507.817806	-116.106495	56.117116	403.598254	-84.600771	62.396033	413.710079	-163.524231	-33.463533	397.153419	-123.309759	213.088584	301.831236	-123.820329	129.667907	313.530740	-59.733974	170.408972	923.613452	-427.896798	252.848764	903.067286	-422.598014	271.623245	933.696484	-410.719110	317.628605	840.082104	-420.470379	392.177069	774.905037	-400.821212	412.339067	765.567186	-303.458356	352.409800	412.912010	-409.262928	367.701894	424.168895	-338.860828	283.954245	372.826144	-373.938007	454.416472	336.492183	-433.465205	378.383634	676.184124	-423.775444	393.175139	590.369182	-414.929822	362.300934	507.636656	-414.608099	419.085432	590.915112	-385.739887	543.646839	357.135828	-363.587203	-65.404664	853.485767	-238.346035	20.832236	84.413818	-441.697530	21.467909	83.746839	-43.310959	
2	0.0100	485.366454	1304.545701	-93.336361	506.782963	1288.543888	-411.417639	459.022248	1328.688368	-253.693149	469.740828	1189.827395	-247.957532	516.576732	1061.608980	-4.051453	691.752128	875.817566	-52.650600	487.648676	1024.828574	-516.906155	682.866413	877.418423	-448.253617	-17.400925	1149.833812	-237.203242	123.105893	1114.579327	-380.983802	138.216435	1121.884860	-99.066971	141.684976	1045.330912	-362.456038	162.150873	1055.872484	-113.638556	23.385665	1175.998777	-180.783467	18.733884	1179.563965	-290.798303	80.501305	989.842889	-42.306083	61.232656	1005.987004	-431.845313	170.948267	883.964479	-48.915022	242.310557	836.195381	-57.601503	278.845690	754.350259	-64.128013	267.386210	856.496769	-74.309155	323.502708	664.738460	-99.327301	304.340917	652.512508	-195.456493	243.069061	599.584916	-69.163776	201.084916	520.956375	-83.743888	126.552353	474.891106	-83.270602	220.357755	507.822343	-116.103453	56.140011	403.652809	-84.587544	62.393008	413.726384	-163.531375	-33.479445	397.161349	-123.296821	213.073393	301.883744	-123.817018	129.678077	313.566014	-59.745179	170.411415	923.584235	-427.920301	252.855649	903.025287	-422.611326	271.611671	933.641207	-410.745368	317.622256	840.040489	-420.468168	392.171643	774.871204	-400.823617	412.307591	765.533759	-303.465063	352.416848	412.857336	-409.247510	367.711119	424.138923	-338.862739	283.965651	372.771393	-373.933492	454.430216	336.447965	-433.460676	378.375432	676.140982	-423.798923	393.171038	590.318798	-414.916946	362.303171	507.598931	-414.619360	419.081741	590.871575	-385.747484	543.655575	357.113580	-363.590426	-65.398300	853.476878	-238.353681	20.828438	84.420343	-441.693417	21.466832	83.744727	-43.312866	
3	0.0150	485.393139	1304.524713	-93.338834	506.809020	1288.500691	-411.416132	459.042424	1328.626261	-253.670827	469.759366	1189.777478	-247.961590	516.571873	1061.591928	-4.032785	691.747918	875.816980	-52.653584	487.619460	1024.773901	-516.901716	682.853114	877.425583	-448.273841	-17.405687	1149.834299	-237.214993	123.117932	1114.573620	-380.980244	138.218003	1121.878476	-99.088031	141.680520	1045.335254	-362.474267	162.151098	1055.879804	-113.640242	23.383420	1175.999371	-180.782995	18.756322	1179.558194	-290.800828	80.502442	989.839972	-42.319292	61.245992	1005.971568	-431.866532	170.966129	883.969684	-48.918487	242.334961	836.203812	-57.620944	278.869943	754.355422	-64.132584	267.420485	856.501026	-74.335321	323.522833	664.717298	-99.335350	304.359069	652.503402	-195.441940	243.059070	599.594449	-69.173911	201.082709	520.974626	-83.752363	126.557021	474.904855	-83.272756	220.333199	507.831703	-116.098611	56.139700	403.685741	-84.589572	62.422404	413.744037	-163.539900	-33.477889	397.190153	-123.293278	213.080933	301.922198	-123.828272	129.654334	313.597346	-59.741959	170.411633	923.553062	-427.933291	252.850305	902.988549	-422.622797	271.612917	933.617521	-410.755384	317.607380	839.998755	-420.480373	392.154162	774.826046	-400.829926	412.290958	765.495729	-303.485266	352.425961	412.825405	-409.254056	367.732145	424.121918	-338.866054	283.968150	372.738496	-373.936115	454.425861	336.417620	-433.458340	378.381264	676.109176	-423.804852	393.175669	590.294892	-414.913492	362.308125	507.565478	-414.624572	419.077570	590.849667	-385.748583	543.662616	357.058386	-363.587446	-65.400759	853.473196	-238.361461	20.829730	84.416181	-441.691566	21.487609	83.711172	-43.318539	
4	0.0200	485.245374	1305.288311	-93.211091	506.823170	1288.435458	-411.409308	458.941424	1328.616346	-253.690215	469.808473	1191.229986	-248.633157	516.813512	1061.479200	-3.808813	691.685460	875.844929	-52.674866	487.913687	1024.228404	-516.460537	682.845300	877.415520	-448.272366	-17.347119	1149.879907	-237.215223	123.116468	1114.570427	-380.997218	138.034911	1121.742635	-99.070735	141.701170	1045.339899	-362.471710	162.150779	1055.872317	-113.638219	23.673702	1175.522130	-180.935388	18.733952	1179.265299	-290.888656	80.839559	989.767207	-42.059257	61.248050	1005.965861	-431.869759	170.970132	883.972342	-48.921406	242.912982	835.757172	-57.375956	278.883174	754.384179	-64.121685	267.097415	856.121376	-74.790101	323.671838	664.439090	-99.189509	304.363603	652.507338	-195.446969	243.073405	599.594085	-69.162303	201.253859	520.899137	-83.498402	126.118207	475.527392	-82.899873	220.295395	508.135212	-116.031193	56.227471	403.534118	-84.046704	61.685453	414.278750	-163.621964	-33.488841	397.229211	-123.299438	213.077000	301.972783	-123.818760	129.654020	313.629568	-59.738059	170.413619	923.536213	-427.932678	252.844606	902.960753	-422.631384	271.372669	934.025988	-410.783516	317.519611	839.946840	-420.100899	392.147003	774.631860	-400.900778	412.277624	765.476696	-303.503775	352.079476	413.413169	-409.716786	367.753545	424.118957	-338.857571	283.975588	372.719090	-373.935921	454.435074	336.392941	-433.454073	378.372677	676.065341	-423.817091	393.202819	590.452461	-415.319974	362.311962	507.517376	-414.628324	419.115780	590.702912	-385.691695	543.664032	357.018695	-363.588677	-65.409823	853.491767	-238.349744	20.824093	84.418057	-441.691737	21.478886	83.711720	-43.301953	
5	0.0250	485.256174	1305.290156	-93.225546	506.756747	1288.772250	-411.390316	458.979662	1328.583530	-253.686101	469.774351	1191.201713	-248.611584	516.580079	1061.853592	-3.755752	691.525386	876.225241	-52.562134	487.733816	1024.619915	-516.510575	682.766183	877.609935	-448.393843	-17.386448	1149.899997	-237.218240	123.107831	1114.698684	-380.972474	137.880820	1121.644012	-100.133641	141.525511	1045.728203	-362.721823	162.129191	1055.865766	-113.643290	23.651421	1175.566536	-181.019936	18.591689	1179.297974	-291.041474	80.551453	990.072563	-42.119844	61.208681	1006.175584	-431.781958	170.812720	884.277294	-48.963993	242.809776	836.002006	-57.331850	278.727147	754.833247	-63.994698	267.119262	856.172432	-75.106547	323.441299	664.894376	-99.217509	304.216890	652.843054	-195.219417	242.844521	599.897780	-69.180224	201.177114	521.343710	-83.363395	126.135796	475.515639	-82.916618	220.402559	508.376248	-115.858737	56.087727	404.143681	-83.759351	61.175446	414.720402	-163.576117	-33.474345	397.239457	-123.299680	213.044818	302.312436	-123.700021	129.518187	313.920488	-59.644383	170.368462	923.674333	-427.942029	252.710296	903.104988	-422.562802	271.364600	934.013732	-410.825780	317.474035	840.072648	-420.008166	392.047506	774.837393	-400.951061	412.307099	765.761449	-302.981893	352.131011	413.315850	-409.625483	367.523427	424.358454	-338.762337	283.821629	372.808101	-374.151156	454.262325	336.648607	-433.673600	378.242545	676.334867	-423.880257	393.180968	590.817444	-415.638349	362.215115	507.683078	-414.656864	419.028206	590.885239	-385.699048	543.577522	357.174941	-363.597882	-65.421419	853.479693	-238.355630	20.776819	84.613525	-441.680076	21.378862	83.918179	-43.362554	
